<?xml version="1.0" encoding="utf-8"?>
<svg xmlns="http://www.w3.org/2000/svg"
	xmlns:xlink="http://www.w3.org/1999/xlink"
	width="92px" height="25px" viewBox="0 0 92 25">
<path fillRule="evenodd" d="M 91.6 14.23C 91.39 14.57 91.12 14.96 90.79 15.41 90.45 15.86 90.08 16.32 89.68 16.79 89.27 17.27 88.85 17.74 88.4 18.19 87.95 18.65 87.5 19.06 87.05 19.41 86.6 19.76 86.17 20.05 85.76 20.27 85.34 20.49 84.97 20.6 84.63 20.6 84.39 20.6 84.15 20.53 83.93 20.39 83.71 20.24 83.52 20.06 83.34 19.83 83.16 19.6 83.03 19.35 82.93 19.07 82.83 18.78 82.79 18.5 82.81 18.22 82.83 18.1 82.86 17.89 82.89 17.59 82.15 18.41 81.41 19.07 80.66 19.55 79.91 20.04 79.2 20.28 78.51 20.28 78.26 20.28 78 20.22 77.72 20.1 77.44 19.97 77.18 19.77 76.96 19.49 76.74 19.21 76.56 18.84 76.42 18.38 76.33 18.09 76.29 17.76 76.27 17.39 76.07 17.63 75.89 17.86 75.68 18.1 75.28 18.57 74.86 18.99 74.42 19.37 73.98 19.75 73.54 20.06 73.11 20.29 72.68 20.53 72.27 20.65 71.88 20.65 71.48 20.65 71.13 20.57 70.84 20.43 70.55 20.28 70.32 20.08 70.14 19.83 69.96 19.58 69.85 19.3 69.8 18.97 69.74 18.65 69.76 18.3 69.85 17.93 69.9 17.68 69.99 17.35 70.11 16.94 70.24 16.53 70.36 16.08 70.5 15.59 70.63 15.11 70.75 14.63 70.87 14.14 70.98 13.66 71.06 13.22 71.09 12.82 71.13 12.43 71.11 12.1 71.04 11.84 70.97 11.59 70.82 11.46 70.59 11.46 70.31 11.46 70.02 11.55 69.72 11.74 69.42 11.92 69.11 12.18 68.81 12.49 68.5 12.81 68.19 13.17 67.88 13.59 67.58 14 67.27 14.43 66.97 14.87 66.81 15.47 66.68 15.99 66.58 16.44 66.47 16.89 66.38 17.29 66.3 17.65 66.22 18.01 66.14 18.33 66.07 18.6 66 18.88 65.94 19.14 65.89 19.38 65.84 19.56 65.68 19.73 65.41 19.9 65.15 20.06 64.87 20.2 64.57 20.31 64.27 20.41 64.01 20.46 63.79 20.46 63.57 20.46 63.48 20.39 63.51 20.23 63.53 20.12 63.59 19.88 63.69 19.51 63.78 19.14 63.9 18.71 64.03 18.21 64.16 17.71 64.3 17.17 64.44 16.61 64.44 16.6 64.44 16.59 64.45 16.58 64.19 16.92 63.93 17.26 63.66 17.6 63.25 18.12 62.84 18.59 62.44 19.03 62.05 19.46 61.72 19.76 61.45 19.94 61.28 20.04 61.08 20.13 60.85 20.2 60.62 20.27 60.39 20.32 60.15 20.33 59.91 20.35 59.69 20.34 59.47 20.29 59.26 20.25 59.08 20.17 58.92 20.07 58.76 19.95 58.63 19.77 58.52 19.54 58.44 19.35 58.35 19.09 58.27 18.78 58.19 18.46 58.16 18.06 58.18 17.59 57.76 18.29 57.29 18.83 56.78 19.21 56.27 19.59 55.79 19.87 55.33 20.04 54.8 20.24 54.27 20.35 53.75 20.39 53.5 20.39 53.24 20.3 52.95 20.14 52.67 19.97 52.43 19.7 52.24 19.34 52.05 18.98 51.92 18.52 51.87 17.94 51.82 17.37 51.89 16.69 52.08 15.9 52.33 14.82 52.72 13.85 53.26 12.97 53.79 12.09 54.38 11.33 55.01 10.71 55.65 10.09 56.27 9.61 56.89 9.3 57.5 8.98 58.01 8.84 58.42 8.88 58.89 8.96 59.28 9.1 59.58 9.3 59.83 9.47 59.99 9.73 60.07 10.08 60.15 10.42 60 10.87 59.63 11.44 59.88 11.38 60.09 11.35 60.25 11.33 60.42 11.31 60.55 11.3 60.64 11.3 60.74 11.3 60.81 11.31 60.85 11.33 60.86 11.37 60.87 11.44 60.87 11.55 60.87 11.67 60.85 11.88 60.79 12.18 60.74 12.47 60.66 12.88 60.56 13.39 60.45 13.9 60.31 14.56 60.13 15.37 60.1 15.53 60.07 15.67 60.04 15.81 60.02 15.94 59.99 16.07 59.96 16.2 59.94 16.33 59.91 16.49 59.87 16.66 59.84 16.84 59.79 17.06 59.74 17.32 59.72 17.48 59.72 17.65 59.73 17.84 59.73 18.02 59.77 18.19 59.82 18.35 59.87 18.51 59.95 18.64 60.07 18.74 60.18 18.83 60.35 18.88 60.56 18.88 60.73 18.88 60.96 18.77 61.24 18.55 61.52 18.33 61.82 18.05 62.14 17.71 62.46 17.36 62.79 16.98 63.13 16.57 63.47 16.16 63.8 15.76 64.09 15.37 64.39 14.98 64.66 14.64 64.9 14.34 64.94 14.29 64.97 14.25 65.01 14.21 65.04 14.03 65.08 13.85 65.12 13.65 65.21 13.23 65.32 12.74 65.45 12.18 65.59 11.61 65.74 11 65.92 10.33 66.04 10.22 66.17 10.14 66.3 10.08 66.43 10.01 66.57 9.97 66.71 9.93 66.85 9.88 67 9.84 67.16 9.83 67.3 9.83 67.44 9.83 67.58 9.85 67.7 9.87 67.83 9.9 67.96 9.94 68.09 9.99 68.21 10.05 68.32 10.14 68.27 10.27 68.2 10.44 68.13 10.66 68.06 10.88 67.99 11.11 67.92 11.36 67.85 11.64 67.76 11.93 67.66 12.23 67.89 11.91 68.15 11.59 68.44 11.26 68.73 10.94 69.04 10.64 69.39 10.38 69.73 10.12 70.1 9.9 70.48 9.73 70.87 9.57 71.27 9.48 71.67 9.48 72.01 9.48 72.31 9.58 72.57 9.77 72.83 9.97 73.04 10.23 73.19 10.58 73.34 10.92 73.43 11.33 73.45 11.81 73.48 12.28 73.41 12.8 73.26 13.36 73.26 13.36 72.97 14.52 72.97 14.52 72.88 14.89 72.77 15.33 72.64 15.83 72.5 16.33 72.34 16.88 72.15 17.48 72.04 17.87 72 18.2 72.03 18.48 72.05 18.77 72.23 18.91 72.54 18.91 72.86 18.91 73.26 18.71 73.74 18.33 74.23 17.94 74.72 17.47 75.21 16.93 75.64 16.45 76.04 15.96 76.43 15.47 76.53 14.9 76.67 14.35 76.87 13.81 77.22 12.9 77.67 12.1 78.21 11.42 78.74 10.75 79.35 10.21 80.03 9.81 80.7 9.42 81.39 9.22 82.07 9.22 82.37 9.22 82.65 9.29 82.89 9.44 83.14 9.59 83.35 9.79 83.53 10.02 83.7 10.26 83.85 10.52 83.96 10.8 84.08 11.08 84.16 11.35 84.21 11.59 84.33 11.08 84.45 10.58 84.55 10.09 84.66 9.6 84.77 9.13 84.87 8.69 85.05 8.04 85.23 7.33 85.43 6.58 85.6 5.93 85.8 5.18 86.03 4.33 86.26 3.49 86.52 2.6 86.8 1.67 86.97 1.53 87.14 1.42 87.3 1.35 87.46 1.28 87.61 1.23 87.75 1.19 87.91 1.14 88.06 1.11 88.2 1.11 88.37 1.11 88.53 1.14 88.67 1.18 88.81 1.22 88.93 1.34 89.03 1.52 89.13 1.71 89.19 1.98 89.23 2.35 89.26 2.72 89.26 3.23 89.23 3.86 89.19 4.63 89.06 5.48 88.82 6.39 88.58 7.31 88.27 8.25 87.88 9.23 87.49 10.21 87.05 11.19 86.55 12.16 86.05 13.14 85.51 14.07 84.92 14.95 84.84 15.49 84.75 16.01 84.67 16.5 84.59 17 84.55 17.39 84.53 17.69 84.51 18.13 84.59 18.45 84.77 18.64 84.94 18.84 85.14 18.93 85.35 18.93 85.59 18.93 85.9 18.81 86.26 18.56 86.62 18.32 87 18.01 87.41 17.64 87.81 17.27 88.22 16.87 88.62 16.43 89.03 15.99 89.4 15.57 89.74 15.17 90.09 14.78 90.38 14.43 90.61 14.13 90.85 13.83 91.01 13.64 91.1 13.55 91.21 13.44 91.32 13.38 91.43 13.36 91.55 13.35 91.64 13.36 91.71 13.42 91.78 13.47 91.82 13.57 91.82 13.71 91.82 13.85 91.74 14.02 91.6 14.23ZM 58.87 11.78C 58.78 11.8 58.68 11.82 58.58 11.86 58.49 11.89 58.37 11.92 58.23 11.94 58.09 11.96 57.95 11.98 57.81 12.02 57.95 11.74 58.04 11.5 58.06 11.32 58.09 11.13 58.09 10.99 58.08 10.88 58.06 10.76 58.02 10.66 57.97 10.59 57.78 10.43 57.44 10.56 56.95 10.97 56.47 11.39 55.91 12.15 55.28 13.26 55.01 13.72 54.8 14.2 54.64 14.72 54.48 15.24 54.37 15.73 54.31 16.19 54.25 16.65 54.24 17.05 54.27 17.39 54.31 17.73 54.38 17.96 54.48 18.06 54.68 18.26 54.9 18.35 55.15 18.34 55.39 18.33 55.64 18.26 55.9 18.13 56.15 18 56.41 17.82 56.66 17.61 56.92 17.4 57.15 17.18 57.35 16.95 57.55 16.72 57.72 16.51 57.85 16.32 57.98 16.13 58.06 15.99 58.08 15.9 58.16 15.55 58.27 15.13 58.39 14.66 58.52 14.18 58.62 13.72 58.71 13.28 58.8 12.84 58.86 12.48 58.91 12.19 58.95 11.9 58.94 11.76 58.87 11.78ZM 83.7 13.31C 83.67 13.33 83.64 13.35 83.6 13.36 83.41 13.45 83.28 13.45 83.21 13.35 83.14 13.25 83.1 13.1 83.1 12.89 83.1 12.78 83.09 12.59 83.08 12.32 83.06 12.05 83.01 11.77 82.93 11.48 82.85 11.19 82.73 10.93 82.57 10.71 82.42 10.49 82.2 10.38 81.91 10.38 81.51 10.38 81.1 10.59 80.67 11 80.25 11.41 79.86 11.92 79.49 12.51 79.12 13.1 78.81 13.72 78.56 14.39 78.32 15.06 78.17 15.66 78.14 16.19 78.1 17.03 78.21 17.64 78.46 18.01 78.7 18.38 79.04 18.56 79.46 18.56 79.78 18.56 80.12 18.44 80.5 18.19 80.88 17.95 81.25 17.65 81.61 17.3 81.97 16.94 82.31 16.58 82.61 16.21 82.92 15.84 83.17 15.54 83.37 15.29 83.44 14.96 83.5 14.62 83.56 14.29 83.63 13.95 83.7 13.61 83.79 13.26 83.75 13.28 83.72 13.29 83.7 13.31ZM 52.11 4.1C 51.9 4.85 51.61 5.94 51.24 7.37 50.92 8.58 50.49 10.24 49.96 12.33 49.42 14.43 48.75 17.07 47.94 20.25 47.85 20.34 47.74 20.4 47.62 20.44 47.5 20.47 47.38 20.49 47.28 20.49 47.15 20.49 47.02 20.48 46.88 20.46 46.76 20.43 46.63 20.38 46.51 20.31 46.41 20.24 46.3 20.14 46.2 20.03 46.09 19.91 46.01 19.76 45.96 19.57 46.21 18.52 46.44 17.54 46.66 16.62 46.21 17.19 45.75 17.75 45.27 18.26 44.64 18.94 44.02 19.5 43.42 19.94 42.82 20.38 42.32 20.6 41.92 20.6 41.34 20.6 40.85 20.48 40.47 20.25 40.08 20.02 39.78 19.74 39.56 19.41 39.34 19.07 39.18 18.71 39.09 18.31 39.01 17.92 38.98 17.55 39.01 17.22 39.03 16.95 39.09 16.48 39.18 15.82 39.01 16.07 38.82 16.33 38.61 16.61 38.24 17.09 37.84 17.57 37.4 18.08 36.96 18.58 36.5 19.04 36.02 19.45 35.53 19.86 35.05 20.2 34.57 20.46 34.08 20.73 33.62 20.86 33.18 20.86 32.72 20.86 32.34 20.77 32.04 20.6 31.75 20.42 31.5 20.2 31.32 19.95 31.13 19.7 31 19.41 30.92 19.11 30.84 18.8 30.81 18.51 30.83 18.25 30.85 18.04 30.9 17.81 31 17.57 31.1 17.34 31.21 17.09 31.34 16.83 31.48 16.58 31.62 16.32 31.77 16.07 31.92 15.81 32.05 15.56 32.18 15.32 32.48 14.81 32.72 14.37 32.9 14.01 33.09 13.65 33.18 13.35 33.18 13.1 33.18 12.94 33.14 12.8 33.07 12.68 33 12.55 32.89 12.49 32.73 12.49 32.63 12.49 32.55 12.5 32.51 12.51 32.46 12.51 32.42 12.52 32.37 12.52 32.33 12.52 32.27 12.52 32.19 12.53 32.11 12.54 31.99 12.54 31.83 12.54 31.6 12.54 31.41 12.51 31.25 12.44 31.09 12.37 30.94 12.32 30.8 12.28 30.73 12.4 30.57 12.67 30.33 13.07 30.08 13.48 29.8 13.95 29.47 14.5 29.14 15.04 28.8 15.62 28.44 16.21 28.08 16.81 27.74 17.37 27.42 17.89 27.11 18.41 26.84 18.85 26.62 19.21 26.4 19.57 26.26 19.79 26.21 19.86 26.09 20.05 25.95 20.18 25.8 20.24 25.65 20.3 25.52 20.31 25.4 20.27 25.29 20.22 25.22 20.13 25.18 19.99 25.15 19.85 25.18 19.67 25.29 19.46 25.34 19.36 25.46 19.12 25.64 18.75 25.83 18.38 26.05 17.93 26.3 17.42 26.56 16.9 26.84 16.33 27.13 15.73 27.43 15.12 27.72 14.54 27.99 14 28.09 13.8 28.18 13.62 28.27 13.45 28.08 13.6 27.88 13.75 27.66 13.92 27.17 14.29 26.63 14.65 26.05 15 25.47 15.35 24.92 15.62 24.39 15.79 24.21 16.46 23.97 17.09 23.68 17.67 23.38 18.25 23.02 18.75 22.61 19.17 22.19 19.59 21.73 19.92 21.21 20.16 20.69 20.4 20.12 20.52 19.5 20.52 18.78 20.52 18.21 20.36 17.8 20.06 17.39 19.75 17.08 19.37 16.88 18.91 16.68 18.45 16.55 17.95 16.51 17.4 16.46 16.86 16.44 16.35 16.44 15.87 16.44 15.54 16.48 15.17 16.56 14.76 16.64 14.36 16.75 13.94 16.89 13.52 17.03 13.1 17.21 12.68 17.43 12.25 17.65 11.83 17.91 11.44 18.21 11.09 18.32 10.79 18.48 10.53 18.7 10.3 18.92 10.07 19.17 9.88 19.46 9.73 19.76 9.58 20.07 9.47 20.4 9.39 20.74 9.31 21.06 9.27 21.38 9.27 21.43 9.27 21.48 9.28 21.52 9.3 21.57 9.31 21.62 9.33 21.67 9.35 21.9 9.37 22.18 9.46 22.53 9.61 22.87 9.77 23.2 10.01 23.53 10.33 23.86 10.64 24.13 11.04 24.36 11.53 24.59 12.01 24.71 12.6 24.71 13.28 24.71 13.43 24.7 13.6 24.68 13.8 24.66 14 24.64 14.17 24.63 14.31 25.03 14.16 25.45 13.96 25.89 13.73 26.33 13.5 26.76 13.26 27.17 13.01 27.59 12.75 27.97 12.49 28.32 12.23 28.67 11.96 28.95 11.73 29.16 11.52 29.02 11.38 28.91 11.28 28.85 11.21 28.78 11.13 28.73 10.96 28.69 10.7 28.66 10.47 28.71 10.17 28.85 9.8 28.99 9.43 29.18 9.07 29.4 8.73 29.63 8.39 29.89 8.09 30.17 7.85 30.45 7.6 30.72 7.48 30.99 7.48 31.48 7.48 31.83 7.63 32.03 7.95 32.23 8.27 32.35 8.59 32.39 8.93 32.42 9.16 32.41 9.45 32.34 9.8 32.26 10.15 32.13 10.47 31.94 10.75 31.99 10.78 32.06 10.82 32.15 10.87 32.24 10.91 32.38 10.93 32.57 10.93 32.85 10.93 33.05 10.92 33.17 10.88 33.28 10.85 33.46 10.83 33.71 10.83 34.01 10.83 34.25 10.9 34.45 11.05 34.64 11.2 34.8 11.39 34.92 11.61 35.05 11.83 35.14 12.07 35.2 12.32 35.26 12.58 35.3 12.81 35.32 13.02 35.37 13.46 35.26 13.92 34.98 14.39 34.69 14.87 34.35 15.39 33.95 15.95 33.7 16.3 33.45 16.7 33.21 17.14 32.96 17.58 32.85 17.97 32.89 18.33 32.92 18.55 32.99 18.74 33.07 18.88 33.16 19.02 33.41 19.09 33.81 19.09 34.11 19.09 34.44 18.98 34.8 18.76 35.16 18.54 35.53 18.26 35.91 17.92 36.29 17.57 36.66 17.2 37.03 16.78 37.4 16.37 37.75 15.96 38.06 15.57 38.38 15.17 38.65 14.81 38.87 14.5 39.09 14.18 39.25 13.95 39.36 13.81 39.41 13.73 39.47 13.67 39.54 13.62 39.57 13.47 39.59 13.32 39.62 13.17 39.8 12.21 40 11.18 40.22 10.08 40.44 8.98 40.67 7.92 40.92 6.9 40.62 6.93 40.32 6.97 40.02 7 39.72 7.04 39.45 7.05 39.2 7.05 38.64 7.05 38.1 6.99 37.6 6.86 37.1 6.72 36.73 6.6 36.48 6.47 36.34 6.4 36.28 6.3 36.3 6.17 36.31 6.04 36.37 5.91 36.45 5.77 36.54 5.64 36.65 5.53 36.78 5.43 36.92 5.33 37.03 5.28 37.14 5.28 37.47 5.32 37.84 5.35 38.22 5.38 38.61 5.4 39.03 5.41 39.49 5.39 39.82 5.37 40.15 5.35 40.45 5.31 40.76 5.28 41.06 5.23 41.36 5.18 41.59 4.33 41.82 3.6 42.04 2.97 42.26 2.35 42.46 1.91 42.63 1.67 42.68 1.58 42.8 1.5 42.99 1.44 43.17 1.38 43.37 1.34 43.58 1.31 43.79 1.28 43.99 1.28 44.19 1.31 44.38 1.34 44.52 1.4 44.61 1.51 44.7 1.65 44.73 2.01 44.72 2.59 44.7 3.17 44.6 3.91 44.43 4.81 45.17 4.81 45.82 4.85 46.39 4.93 46.97 5.01 47.45 5.1 47.86 5.19 48.26 5.29 48.59 5.39 48.84 5.48 49.01 5.55 49.14 5.6 49.25 5.63 49.34 5.21 49.42 4.89 49.47 4.65 49.52 4.32 49.57 3.99 49.6 3.67 49.64 3.39 49.65 3.1 49.65 2.8 49.65 2.5 49.63 2.23 49.57 1.98 49.72 1.9 49.87 1.83 50.04 1.77 50.2 1.72 50.37 1.68 50.52 1.64 50.72 1.59 50.91 1.54 51.11 1.51 51.3 1.47 51.48 1.46 51.63 1.46 51.77 1.46 51.91 1.47 52.03 1.5 52.15 1.52 52.23 1.58 52.27 1.67 52.37 1.76 52.42 1.93 52.41 2.2 52.4 2.46 52.38 2.73 52.35 3.01 52.28 3.35 52.2 3.71 52.11 4.1ZM 18.61 14.34C 18.5 14.71 18.41 15.07 18.34 15.42 18.27 15.77 18.24 16.11 18.24 16.43 18.24 16.74 18.25 17.06 18.29 17.36 18.33 17.67 18.4 17.94 18.5 18.18 18.61 18.42 18.75 18.61 18.92 18.76 19.1 18.91 19.33 18.99 19.61 18.99 19.93 18.99 20.22 18.91 20.48 18.76 20.75 18.61 20.98 18.42 21.19 18.18 21.41 17.94 21.59 17.67 21.76 17.36 21.93 17.06 22.07 16.73 22.2 16.4 22.07 16.42 21.96 16.43 21.84 16.44 21.73 16.45 21.6 16.45 21.46 16.45 20.79 16.45 20.21 16.25 19.73 15.86 19.24 15.46 18.87 14.96 18.61 14.34ZM 22.86 12.68C 22.82 12.32 22.76 12 22.66 11.71 22.56 11.42 22.44 11.19 22.29 11 22.14 10.82 21.96 10.72 21.75 10.72 21.41 10.72 21.09 10.82 20.78 11 20.48 11.19 20.19 11.44 19.93 11.78 19.87 11.94 19.85 12.11 19.85 12.28 19.85 12.56 19.87 12.86 19.9 13.17 19.94 13.47 20.02 13.75 20.16 14 20.31 14.24 20.53 14.45 20.84 14.62 21.15 14.78 21.57 14.87 22.12 14.87 22.21 14.87 22.29 14.86 22.38 14.85 22.47 14.85 22.56 14.83 22.65 14.81 22.7 14.59 22.75 14.38 22.79 14.19 22.84 14.01 22.86 13.85 22.86 13.71 22.89 13.37 22.89 13.03 22.86 12.68ZM 48.73 6.87C 48.55 6.85 48.36 6.82 48.14 6.76 47.92 6.71 47.65 6.67 47.34 6.63 47.04 6.6 46.67 6.56 46.25 6.53 45.83 6.49 45.33 6.47 44.77 6.47 44.66 6.47 44.55 6.48 44.41 6.49 44.28 6.49 44.14 6.5 44 6.5 43.93 6.78 43.87 7.06 43.81 7.33 43.74 7.6 43.66 7.89 43.56 8.19 43.33 8.89 43.06 9.66 42.76 10.49 42.5 11.21 42.18 12.03 41.81 12.97 41.44 13.9 41.03 14.89 40.57 15.95 40.47 16.71 40.48 17.28 40.61 17.68 40.74 18.08 40.91 18.36 41.1 18.54 41.33 18.73 41.61 18.84 41.94 18.85 42.21 18.89 42.53 18.8 42.91 18.58 43.29 18.36 43.68 18.06 44.08 17.69 44.49 17.32 44.9 16.92 45.31 16.48 45.72 16.04 46.11 15.61 46.46 15.18 46.75 14.84 47 14.53 47.22 14.24 47.44 13.31 47.64 12.47 47.82 11.73 48.28 9.76 48.64 8.25 48.89 7.21 48.92 7.09 48.94 6.98 48.97 6.87 48.89 6.88 48.81 6.89 48.73 6.87ZM 16.02 9.24C 15.49 10.32 14.76 11.31 13.83 12.21 12.9 13.12 11.76 13.89 10.42 14.52 9.08 15.16 7.55 15.52 5.83 15.61 5.69 16.28 5.55 16.96 5.41 17.67 5.27 18.37 5.12 19.06 4.96 19.74 4.8 20.42 4.64 21.05 4.47 21.64 4.3 22.23 4.13 22.74 3.95 23.16 3.78 23.61 3.55 23.98 3.27 24.25 2.99 24.53 2.54 24.66 1.92 24.66 1.6 24.66 1.31 24.58 1.04 24.42 0.76 24.27 0.51 24.05 0.28 23.76 0.36 23.71 0.47 23.62 0.61 23.5 0.76 23.38 0.94 23.15 1.14 22.81 1.35 22.48 1.57 22 1.82 21.36 2.06 20.73 2.32 19.87 2.58 18.78 2.72 18.19 2.91 17.46 3.14 16.56 3.36 15.66 3.62 14.7 3.89 13.68 4.16 12.66 4.44 11.61 4.72 10.52 5 9.44 5.27 8.41 5.54 7.44 5.8 6.46 6.04 5.57 6.25 4.78 6.46 3.99 6.63 3.38 6.75 2.93 6.42 3.15 6.09 3.38 5.78 3.65 5.49 3.88 5.2 4.14 4.88 4.43 4.56 4.72 4.25 5.02 3.95 5.34 3.73 5.14 3.55 4.93 3.43 4.7 3.36 4.6 3.29 4.48 3.24 4.36 3.14 4.1 3.08 3.82 3.08 3.54 3.08 3.26 3.3 2.97 3.74 2.67 3.97 2.51 4.32 2.28 4.79 1.98 5.25 1.69 5.83 1.39 6.52 1.1 7.2 0.81 8 0.56 8.92 0.35 9.83 0.14 10.85 0.03 11.95 0.03 13.06 0.03 13.96 0.25 14.63 0.69 15.31 1.13 15.83 1.67 16.19 2.3 16.55 2.93 16.79 3.6 16.89 4.31 17 5.01 17.02 5.63 16.97 6.16 16.86 7.14 16.55 8.17 16.02 9.24ZM 14.21 3.79C 14.03 3.2 13.76 2.73 13.41 2.37 13.05 2.01 12.65 1.75 12.19 1.6 11.73 1.45 11.28 1.38 10.82 1.38 10.38 1.38 9.95 1.44 9.53 1.56 9.1 1.69 8.68 1.84 8.26 2.04 8.31 2.06 8.37 2.1 8.44 2.17 8.55 2.27 8.63 2.42 8.68 2.62 8.26 4.33 7.91 5.75 7.64 6.9 7.36 8.04 7.15 8.97 6.99 9.69 6.8 10.54 6.65 11.22 6.54 11.73 6.49 12.01 6.42 12.37 6.34 12.82 6.26 13.27 6.17 13.78 6.07 14.34 6.54 14.27 7.07 14.14 7.65 13.96 8.23 13.77 8.81 13.52 9.39 13.2 9.97 12.89 10.54 12.51 11.1 12.06 11.65 11.61 12.16 11.09 12.61 10.5 13.07 9.91 13.45 9.24 13.76 8.49 14.07 7.74 14.27 6.91 14.36 6 14.44 5.12 14.4 4.38 14.21 3.79Z" fill="rgb(57,63,91)"/></svg>