<?xml version="1.0" encoding="utf-8"?>
<svg xmlns="http://www.w3.org/2000/svg"
	xmlns:xlink="http://www.w3.org/1999/xlink"
	width="12px" height="11px" viewBox="0 0 12 11">
<path fillRule="evenodd" d="M 11.69 10.63C 11.48 10.88 11.22 11 10.93 11 10.93 11 1.07 11 1.07 11 0.78 11 0.52 10.88 0.31 10.63 0.1 10.39-0 10.09-0 9.75-0 9.75-0 3.55-0 3.55 0.2 3.8 0.42 4.03 0.68 4.23 2.29 5.51 3.4 6.41 4 6.92 4.26 7.14 4.47 7.31 4.62 7.43 4.78 7.56 4.99 7.68 5.26 7.81 5.52 7.94 5.77 8 5.99 8 5.99 8 6 8 6 8 6 8 6.01 8 6.01 8 6.23 8 6.48 7.94 6.74 7.81 7.01 7.68 7.22 7.56 7.38 7.43 7.53 7.31 7.74 7.14 8 6.92 8.75 6.28 9.87 5.38 11.33 4.23 11.58 4.02 11.81 3.8 12 3.55 12 3.55 12 9.75 12 9.75 12 10.09 11.9 10.39 11.69 10.63ZM 10.85 3.39C 9.18 4.75 8.13 5.6 7.72 5.93 7.68 5.97 7.58 6.05 7.44 6.17 7.29 6.29 7.17 6.39 7.07 6.47 6.98 6.54 6.86 6.63 6.73 6.72 6.59 6.81 6.46 6.88 6.34 6.93 6.22 6.98 6.11 7 6.01 7 6.01 7 6 7 6 7 6 7 5.99 7 5.99 7 5.89 7 5.78 6.98 5.66 6.93 5.54 6.88 5.41 6.81 5.27 6.72 5.14 6.63 5.02 6.54 4.93 6.47 4.83 6.39 4.71 6.29 4.56 6.17 4.42 6.05 4.32 5.97 4.28 5.93 3.87 5.6 3.29 5.12 2.52 4.5 1.76 3.89 1.3 3.52 1.15 3.39 0.87 3.17 0.61 2.87 0.37 2.49 0.12 2.1-0 1.75-0 1.42-0 1.01 0.09 0.68 0.28 0.4 0.46 0.13 0.73-0 1.07-0 1.07-0 10.93-0 10.93-0 11.22-0 11.47 0.12 11.68 0.37 11.89 0.61 12 0.91 12 1.25 12 1.66 11.89 2.05 11.67 2.43 11.45 2.8 11.18 3.12 10.85 3.39Z" fill="rgb(135,135,135)"/></svg>