<?xml version="1.0" encoding="utf-8"?>
<svg xmlns="http://www.w3.org/2000/svg"
	xmlns:xlink="http://www.w3.org/1999/xlink"
	width="14px" height="19px" viewBox="0 0 14 19">
<path fillRule="evenodd" d="M 12.65 19C 12.65 19 1.35 19 1.35 19 0.61 19-0 18.4-0 17.66-0 17.66-0 9.64-0 9.64-0 8.91 0.6 8.3 1.35 8.3 1.35 8.3 12.64 8.3 12.64 8.3 13.4 8.3 14 8.9 14 9.64 14 9.64 14 17.66 14 17.66 14 18.39 13.4 19 12.65 19ZM 6.99 11.27C 6.27 11.27 5.68 11.86 5.68 12.59 5.68 13.05 5.95 13.48 6.33 13.7 6.33 13.7 5.89 16.04 5.89 16.04 5.89 16.04 8.1 16.04 8.1 16.04 8.1 16.04 7.66 13.7 7.66 13.7 8.06 13.47 8.31 13.07 8.31 12.59 8.31 11.86 7.72 11.27 6.99 11.27ZM 9.53 4.96C 9.53 3.58 8.39 2.44 6.99 2.44 5.6 2.44 4.46 3.57 4.46 4.96 4.46 4.96 4.46 7.48 4.46 7.48 4.46 7.48 2.01 7.48 2.01 7.48 2.01 7.48 2.01 4.96 2.01 4.96 2.01 2.22 4.25-0 6.99-0 9.74-0 11.98 2.22 11.98 4.96 11.98 4.96 11.98 7.48 11.98 7.48 11.98 7.48 9.53 7.48 9.53 7.48 9.53 7.48 9.53 4.96 9.53 4.96Z" fill="rgb(135,135,135)"/></svg>