<?xml version="1.0" encoding="utf-8"?>
<svg xmlns="http://www.w3.org/2000/svg"
	xmlns:xlink="http://www.w3.org/1999/xlink"
	width="199px" height="140px" viewBox="0 0 199 140">
<path fillRule="evenodd" d="M 188.9 140C 188.9 140 10.1 140 10.1 140 4.53 140-0 135.49-0 129.94-0 129.94-0 123.09-0 123.09-0 121.31 1.44 119.88 3.22 119.88 3.22 119.88 6.88 119.88 6.88 119.88 6.88 119.88 6.88 10.06 6.88 10.06 6.88 4.51 11.41-0 16.98-0 16.98-0 182.02-0 182.02-0 187.59-0 192.12 4.51 192.12 10.06 192.12 10.06 192.12 119.88 192.12 119.88 192.12 119.88 195.78 119.88 195.78 119.88 197.56 119.88 199 121.31 199 123.09 199 123.09 199 129.94 199 129.94 199 135.49 194.47 140 188.9 140ZM 185.68 10.06C 185.68 8.05 184.04 6.42 182.02 6.42 182.02 6.42 16.98 6.42 16.98 6.42 14.96 6.42 13.32 8.05 13.32 10.06 13.32 10.06 13.32 119.88 13.32 119.88 13.32 119.88 185.68 119.88 185.68 119.88 185.68 119.88 185.68 10.06 185.68 10.06ZM 192.55 126.3C 192.55 126.3 116.47 126.3 116.47 126.3 116.47 126.37 116.48 126.44 116.48 126.51 116.48 128.29 115.03 129.72 113.25 129.72 113.25 129.72 85.75 129.72 85.75 129.72 83.97 129.72 82.52 128.29 82.52 126.51 82.52 126.44 82.53 126.37 82.53 126.3 82.53 126.3 6.45 126.3 6.45 126.3 6.45 126.3 6.45 129.94 6.45 129.94 6.45 131.94 8.09 133.58 10.1 133.58 10.1 133.58 188.9 133.58 188.9 133.58 190.91 133.58 192.55 131.94 192.55 129.94 192.55 129.94 192.55 126.3 192.55 126.3ZM 23.85 13.7C 23.85 13.7 175.15 13.7 175.15 13.7 176.93 13.7 178.37 15.14 178.37 16.91 178.37 16.91 178.37 109.39 178.37 109.39 178.37 111.16 176.93 112.6 175.15 112.6 175.15 112.6 23.85 112.6 23.85 112.6 22.07 112.6 20.63 111.16 20.63 109.39 20.63 109.39 20.63 16.91 20.63 16.91 20.63 15.14 22.07 13.7 23.85 13.7ZM 109.6 106.18C 109.6 106.18 171.92 106.18 171.92 106.18 171.92 106.18 171.92 20.12 171.92 20.12 171.92 20.12 109.6 20.12 109.6 20.12 109.6 20.12 109.6 106.18 109.6 106.18ZM 40.83 106.18C 40.83 106.18 89.4 106.18 89.4 106.18 89.4 106.18 89.4 85.41 89.4 85.41 89.4 82.53 87.66 80.05 85.17 78.95 83.37 88.35 75.06 95.47 65.12 95.47 55.17 95.47 46.86 88.35 45.07 78.95 42.58 80.05 40.83 82.53 40.83 85.41 40.83 85.41 40.83 106.18 40.83 106.18ZM 53.95 68.17C 51.03 66.27 48.63 63.64 47.01 60.54 46.35 64.72 45.24 68.47 43.7 71.65 47.27 71.21 51.35 70.21 53.95 68.17ZM 51.22 76.6C 51.96 83.59 57.91 89.05 65.12 89.05 72.32 89.05 78.27 83.59 79.01 76.6 75 75.34 71.97 73.44 69.94 70.92 68.39 71.29 66.78 71.5 65.12 71.5 63.45 71.5 61.84 71.29 60.29 70.92 58.26 73.44 55.23 75.34 51.22 76.6ZM 51.23 52.72C 52 59.65 57.93 65.08 65.12 65.08 72.82 65.08 79.08 58.83 79.08 51.16 79.08 47.87 77.88 44.71 75.72 42.21 68.03 47.93 58.67 51.04 51.23 52.72ZM 73.35 35.89C 70.9 34.57 68.09 33.82 65.12 33.82 57.03 33.82 50.22 39.34 48.27 46.79 54.62 45.47 65.47 42.41 73.35 35.89ZM 76.28 68.17C 78.88 70.21 82.96 71.21 86.53 71.65 84.99 68.47 83.88 64.72 83.22 60.54 81.6 63.64 79.2 66.27 76.28 68.17ZM 27.08 106.18C 27.08 106.18 34.38 106.18 34.38 106.18 34.38 106.18 34.38 85.41 34.38 85.41 34.38 82.74 35.17 80.25 36.52 78.16 35.69 77.86 34.99 77.23 34.64 76.39 34.16 75.25 34.37 73.93 35.19 73.01 39.05 68.67 41.26 60.71 41.26 51.16 41.26 38.06 51.96 27.4 65.12 27.4 78.27 27.4 88.97 38.06 88.97 51.16 88.97 60.71 91.18 68.67 95.04 73.01 95.86 73.93 96.08 75.25 95.59 76.39 95.24 77.23 94.55 77.86 93.71 78.16 95.06 80.25 95.85 82.74 95.85 85.41 95.85 85.41 95.85 106.18 95.85 106.18 95.85 106.18 103.15 106.18 103.15 106.18 103.15 106.18 103.15 20.12 103.15 20.12 103.15 20.12 27.08 20.12 27.08 20.12 27.08 20.12 27.08 106.18 27.08 106.18ZM 161.39 92.05C 161.39 92.05 137.11 92.05 137.11 92.05 137.11 92.05 137.11 92.26 137.11 92.26 137.11 94.04 135.67 95.47 133.88 95.47 132.1 95.47 130.66 94.04 130.66 92.26 130.66 92.26 130.66 92.05 130.66 92.05 130.66 92.05 120.13 92.05 120.13 92.05 118.35 92.05 116.91 90.61 116.91 88.84 116.91 87.06 118.35 85.63 120.13 85.63 120.13 85.63 130.66 85.63 130.66 85.63 130.66 85.63 130.66 85.41 130.66 85.41 130.66 83.64 132.1 82.2 133.88 82.2 135.67 82.2 137.11 83.64 137.11 85.41 137.11 85.41 137.11 85.63 137.11 85.63 137.11 85.63 161.39 85.63 161.39 85.63 163.17 85.63 164.62 87.06 164.62 88.84 164.62 90.61 163.17 92.05 161.39 92.05ZM 161.39 74.92C 161.39 74.92 147.42 74.92 147.42 74.92 147.42 74.92 147.42 75.14 147.42 75.14 147.42 76.91 145.98 78.35 144.2 78.35 142.42 78.35 140.98 76.91 140.98 75.14 140.98 75.14 140.98 74.92 140.98 74.92 140.98 74.92 120.13 74.92 120.13 74.92 118.35 74.92 116.91 73.49 116.91 71.71 116.91 69.94 118.35 68.5 120.13 68.5 120.13 68.5 140.98 68.5 140.98 68.5 140.98 68.5 140.98 68.29 140.98 68.29 140.98 66.51 142.42 65.08 144.2 65.08 145.98 65.08 147.42 66.51 147.42 68.29 147.42 68.29 147.42 68.5 147.42 68.5 147.42 68.5 161.39 68.5 161.39 68.5 163.17 68.5 164.62 69.94 164.62 71.71 164.62 73.49 163.17 74.92 161.39 74.92ZM 161.39 57.8C 161.39 57.8 157.74 57.8 157.74 57.8 157.74 57.8 157.74 58.01 157.74 58.01 157.74 59.79 156.3 61.22 154.51 61.22 152.73 61.22 151.29 59.79 151.29 58.01 151.29 58.01 151.29 57.8 151.29 57.8 151.29 57.8 120.13 57.8 120.13 57.8 118.35 57.8 116.91 56.36 116.91 54.59 116.91 52.81 118.35 51.38 120.13 51.38 120.13 51.38 151.29 51.38 151.29 51.38 151.29 51.38 151.29 51.16 151.29 51.16 151.29 49.39 152.73 47.95 154.51 47.95 156.3 47.95 157.74 49.39 157.74 51.16 157.74 51.16 157.74 51.38 157.74 51.38 157.74 51.38 161.39 51.38 161.39 51.38 163.17 51.38 164.62 52.81 164.62 54.59 164.62 56.36 163.17 57.8 161.39 57.8ZM 161.39 40.67C 161.39 40.67 130.23 40.67 130.23 40.67 130.23 40.67 130.23 40.89 130.23 40.89 130.23 42.66 128.79 44.1 127.01 44.1 125.23 44.1 123.78 42.66 123.78 40.89 123.78 40.89 123.78 40.67 123.78 40.67 123.78 40.67 120.13 40.67 120.13 40.67 118.35 40.67 116.91 39.24 116.91 37.46 116.91 35.69 118.35 34.25 120.13 34.25 120.13 34.25 123.78 34.25 123.78 34.25 123.78 34.25 123.78 34.04 123.78 34.04 123.78 32.26 125.23 30.83 127.01 30.83 128.79 30.83 130.23 32.26 130.23 34.04 130.23 34.04 130.23 34.25 130.23 34.25 130.23 34.25 161.39 34.25 161.39 34.25 163.17 34.25 164.62 35.69 164.62 37.46 164.62 39.24 163.17 40.67 161.39 40.67Z" fill="rgb(5,159,235)"/></svg>