<?xml version="1.0" encoding="utf-8"?>
<svg xmlns="http://www.w3.org/2000/svg"
	xmlns:xlink="http://www.w3.org/1999/xlink"
	width="177px" height="143px" viewBox="0 0 177 143">
<path fillRule="evenodd" d="M 167.96 104C 167.96 104 9.04 104 9.04 104 4.06 104-0 99.93-0 94.92-0 94.92-0 9.08-0 9.08-0 4.07 4.06-0 9.04-0 9.04-0 167.96-0 167.96-0 172.94-0 177 4.07 177 9.08 177 9.08 177 94.92 177 94.92 177 99.93 172.94 104 167.96 104ZM 169.7 9.08C 169.7 8.12 168.92 7.33 167.96 7.33 167.96 7.33 9.04 7.33 9.04 7.33 8.08 7.33 7.3 8.12 7.3 9.08 7.3 9.08 7.3 94.92 7.3 94.92 7.3 95.89 8.08 96.67 9.04 96.67 9.04 96.67 167.96 96.67 167.96 96.67 168.92 96.67 169.7 95.89 169.7 94.92 169.7 94.92 169.7 9.08 169.7 9.08ZM 73.39 79.6C 72.76 80.05 71.41 80.86 69.6 79.87 68.41 79.21 67.63 77.98 67.63 76.61 67.63 76.61 67.63 27.39 67.63 27.39 67.63 26.02 68.39 24.77 69.6 24.14 70.82 23.51 72.28 23.61 73.39 24.41 73.39 24.41 107.84 49.01 107.84 49.01 108.8 49.7 109.37 50.81 109.37 52 109.37 53.19 108.8 54.3 107.84 54.99 107.84 54.99 82 73.44 73.39 79.6ZM 74.93 34.5C 74.93 34.5 74.93 69.5 74.93 69.5 74.93 69.5 99.42 52 99.42 52 99.42 52 74.93 34.5 74.93 34.5ZM 3.65 124.82C 3.65 124.82 75.63 124.82 75.63 124.82 77.25 118.58 82.9 113.97 89.61 113.97 96.31 113.97 101.97 118.58 103.59 124.82 103.59 124.82 173.35 124.82 173.35 124.82 175.36 124.82 177 126.46 177 128.48 177 130.51 175.36 132.15 173.35 132.15 173.35 132.15 103.59 132.15 103.59 132.15 101.97 138.38 96.31 143 89.61 143 82.9 143 77.25 138.39 75.63 132.15 75.63 132.15 3.65 132.15 3.65 132.15 1.63 132.15-0 130.51-0 128.48-0 126.46 1.63 124.82 3.65 124.82ZM 89.61 135.67C 93.55 135.67 96.76 132.44 96.76 128.48 96.76 124.52 93.55 121.3 89.61 121.3 85.67 121.3 82.46 124.52 82.46 128.48 82.46 132.44 85.67 135.67 89.61 135.67Z" fill="rgb(5,159,235)"/></svg>