<?xml version="1.0" encoding="utf-8"?>
<svg xmlns="http://www.w3.org/2000/svg"
	xmlns:xlink="http://www.w3.org/1999/xlink"
	width="195px" height="128px" viewBox="0 0 195 128">
<path fillRule="evenodd" d="M 185.1 128C 185.1 128 9.9 128 9.9 128 4.44 128-0 123.55-0 118.07-0 118.07-0 9.93-0 9.93-0 4.45 4.44-0 9.9-0 9.9-0 185.1-0 185.1-0 190.56-0 195 4.45 195 9.93 195 9.93 195 118.07 195 118.07 195 123.55 190.56 128 185.1 128ZM 188.68 9.93C 188.68 7.95 187.08 6.34 185.1 6.34 185.1 6.34 9.9 6.34 9.9 6.34 7.92 6.34 6.32 7.95 6.32 9.93 6.32 9.93 6.32 30.42 6.32 30.42 6.32 30.42 9.9 30.42 9.9 30.42 10.01 30.42 10.11 30.32 10.11 30.2 10.11 30.2 10.11 23.45 10.11 23.45 10.11 19.83 13.04 16.9 16.64 16.9 16.64 16.9 178.36 16.9 178.36 16.9 181.96 16.9 184.89 19.83 184.89 23.45 184.89 23.45 184.89 30.2 184.89 30.2 184.89 30.32 184.99 30.42 185.1 30.42 185.1 30.42 188.68 30.42 188.68 30.42 188.68 30.42 188.68 9.93 188.68 9.93ZM 188.68 36.75C 188.68 36.75 185.1 36.75 185.1 36.75 181.5 36.75 178.57 33.81 178.57 30.2 178.57 30.2 178.57 23.45 178.57 23.45 178.57 23.33 178.48 23.23 178.36 23.23 178.36 23.23 16.64 23.23 16.64 23.23 16.52 23.23 16.43 23.33 16.43 23.45 16.43 23.45 16.43 30.2 16.43 30.2 16.43 33.81 13.5 36.75 9.9 36.75 9.9 36.75 6.32 36.75 6.32 36.75 6.32 36.75 6.32 118.07 6.32 118.07 6.32 120.05 7.92 121.66 9.9 121.66 9.9 121.66 185.1 121.66 185.1 121.66 187.08 121.66 188.68 120.05 188.68 118.07 188.68 118.07 188.68 36.75 188.68 36.75ZM 170.73 97.58C 170.73 97.58 38.03 97.58 38.03 97.58 38.02 97.58 38.01 97.58 38.01 97.58 38 97.58 38 97.58 37.99 97.58 37.99 97.58 24.27 97.58 24.27 97.58 23.26 97.58 22.3 97.09 21.71 96.27 16.32 88.77 13.48 79.95 13.48 70.76 13.48 61.57 16.32 52.75 21.71 45.25 22.3 44.42 23.26 43.93 24.27 43.93 24.27 43.93 38.01 43.93 38.01 43.93 38.02 43.93 38.04 43.93 38.06 43.93 38.06 43.93 170.73 43.93 170.73 43.93 171.74 43.93 172.7 44.42 173.29 45.25 178.68 52.75 181.52 61.57 181.52 70.76 181.52 79.95 178.68 88.77 173.29 96.27 172.69 97.09 171.74 97.58 170.73 97.58ZM 141.09 76.96C 143.34 75.8 144.88 73.46 144.88 70.76 144.88 68.06 143.34 65.71 141.09 64.56 141.09 64.56 141.09 76.96 141.09 76.96ZM 25.93 50.27C 21.91 56.39 19.79 63.44 19.79 70.76 19.79 78.08 21.91 85.13 25.93 91.25 25.93 91.25 30.53 91.25 30.53 91.25 26.06 85.43 23.59 78.28 23.59 70.76 23.59 63.24 26.06 56.08 30.53 50.27 30.53 50.27 25.93 50.27 25.93 50.27ZM 39.17 50.27C 33.27 55.45 29.9 62.86 29.9 70.76 29.9 78.66 33.27 86.06 39.17 91.25 39.17 91.25 45.72 91.25 45.72 91.25 38.55 87.24 33.69 79.56 33.69 70.76 33.69 61.96 38.55 54.28 45.72 50.27 45.72 50.27 39.17 50.27 39.17 50.27ZM 53.91 64.56C 51.66 65.71 50.12 68.06 50.12 70.76 50.12 73.46 51.66 75.8 53.91 76.96 53.91 76.96 53.91 64.56 53.91 64.56ZM 53.91 83.68C 48.11 82.26 43.8 77 43.8 70.76 43.8 64.51 48.11 59.26 53.91 57.84 53.91 57.84 53.91 53.95 53.91 53.95 46.01 55.44 40.01 62.41 40.01 70.76 40.01 79.11 46.01 86.08 53.91 87.57 53.91 87.57 53.91 83.68 53.91 83.68ZM 134.77 50.27C 134.77 50.27 60.23 50.27 60.23 50.27 60.23 50.27 60.23 91.25 60.23 91.25 60.23 91.25 134.77 91.25 134.77 91.25 134.77 91.25 134.77 50.27 134.77 50.27ZM 169.07 50.27C 169.07 50.27 141.09 50.27 141.09 50.27 141.09 50.27 141.09 57.84 141.09 57.84 146.89 59.26 151.2 64.51 151.2 70.76 151.2 77 146.89 82.26 141.09 83.68 141.09 83.68 141.09 91.25 141.09 91.25 141.09 91.25 169.07 91.25 169.07 91.25 173.09 85.13 175.21 78.08 175.21 70.76 175.21 63.44 173.09 56.39 169.07 50.27Z" fill="rgb(5,159,235)"/></svg>