<?xml version="1.0" encoding="utf-8"?>
<svg xmlns="http://www.w3.org/2000/svg"
	xmlns:xlink="http://www.w3.org/1999/xlink"
	width="144px" height="139px" viewBox="0 0 144 139">
<path fillRule="evenodd" d="M 143.79 69.62C 143.79 69.62 143.79 69.85 143.79 69.85 143.79 69.85 143.79 126.28 143.79 126.28 143.79 128.8 143.42 130.66 142.37 132.1 141.48 133.32 139.65 134.79 136.64 134.81 134.95 134.8 133.2 134.34 131 133.67 130.74 133.59 130.53 133.48 130.3 133.36 122.21 129.13 113.48 124.64 107.86 121.85 107.86 121.85 108.08 125.34 108.08 125.34 108.08 125.36 108.08 125.35 108.08 125.34 107.98 133.25 101.59 139.01 93.43 139.01 93.43 139.01 14.91 139.01 14.91 139.01 6.69 139.01-0 133.71-0 125.85-0 125.85-0 71.04-0 71.04-0 62.87 6.96 55.12 14.91 55.12 14.91 55.12 93.43 55.12 93.43 55.12 101.52 55.12 108.09 62.18 108.09 70.34 108.09 70.45 108.09 70.76 108.08 70.86 108.08 70.86 107.98 72.43 107.98 72.43 114.19 69.22 123.71 64.26 130.35 60.74 132.59 59.66 134.44 59.21 136.15 59.21 138.25 59.21 139.98 59.96 141.36 61.37 144 64.02 143.79 67.95 143.79 69.62ZM 135.51 67.74C 135.2 67.83 134.76 67.99 134.18 68.27 104.98 83.76 104.61 83.76 103.23 83.76 102.06 83.76 100.94 83.28 100.13 82.43 99.34 81.57 98.93 80.43 99.01 79.27 99.01 79.27 99.63 70.21 99.63 70.21 99.56 66.79 96.75 63.5 93.43 63.5 93.43 63.5 14.91 63.5 14.91 63.5 14.91 63.5 14.91 63.51 14.91 63.51 11.6 63.51 8.45 67.48 8.45 71.04 8.45 71.04 8.45 125.85 8.45 125.85 8.45 129.11 11.32 130.62 14.91 130.62 14.91 130.62 93.43 130.62 93.43 130.62 96.87 130.62 99.57 128.52 99.63 125.27 99.63 125.27 99.01 115.13 99.01 115.13 98.94 113.97 99.35 112.95 100.15 112.11 100.95 111.26 102.07 110.84 103.23 110.84 104.49 110.84 105.48 110.87 133.92 125.72 134.36 125.85 134.99 126.05 135.58 126.19 135.58 126.19 135.58 69.49 135.58 69.49 135.6 68.66 135.56 68.11 135.51 67.74ZM 48.88 71.9C 48.88 71.9 46.77 71.9 46.77 71.9 45.6 71.9 44.65 70.96 44.65 69.8 44.65 68.64 45.6 67.7 46.77 67.7 46.77 67.7 48.88 67.7 48.88 67.7 50.05 67.7 51 68.64 51 69.8 51 70.96 50.05 71.9 48.88 71.9ZM 38.31 71.89C 38.31 71.89 20.35 71.89 20.35 71.89 18.8 71.89 16.91 74.81 16.91 76.77 16.91 76.77 16.91 87.43 16.91 87.43 16.91 88.59 15.97 89.52 14.8 89.52 13.63 89.52 12.68 88.59 12.68 87.43 12.68 87.43 12.68 76.77 12.68 76.77 12.68 72.89 16.11 67.7 20.35 67.7 20.35 67.7 38.31 67.7 38.31 67.7 39.48 67.7 40.42 68.64 40.42 69.8 40.42 70.96 39.48 71.89 38.31 71.89ZM 136.57 134.81C 136.6 134.81 136.62 134.81 136.64 134.81 136.66 134.81 136.68 134.81 136.71 134.81 136.71 134.81 136.57 134.81 136.57 134.81ZM 90.63 52.07C 76.15 52.07 64.37 40.39 64.37 26.03 64.37 11.67 76.15-0.01 90.63-0.01 105.11-0.01 116.89 11.67 116.89 26.03 116.89 40.39 105.11 52.07 90.63 52.07ZM 90.63 8.38C 80.81 8.38 72.83 16.3 72.83 26.03 72.83 35.76 80.81 43.68 90.63 43.68 100.44 43.68 108.43 35.76 108.43 26.03 108.43 16.3 100.44 8.38 90.63 8.38ZM 90.63 16.58C 87.44 16.58 84.48 18.15 82.71 20.77 82.3 21.38 81.63 21.7 80.95 21.7 80.55 21.7 80.14 21.59 79.77 21.35 78.8 20.7 78.55 19.4 79.19 18.44 81.76 14.65 86.03 12.38 90.63 12.38 91.8 12.38 92.74 13.32 92.74 14.48 92.74 15.64 91.8 16.58 90.63 16.58ZM 31.42 52.07C 16.94 52.07 5.17 40.39 5.17 26.03 5.17 11.67 16.94-0.01 31.42-0.01 45.9-0.01 57.68 11.67 57.68 26.03 57.68 40.39 45.9 52.07 31.42 52.07ZM 31.42 8.38C 21.61 8.38 13.62 16.3 13.62 26.03 13.62 35.76 21.61 43.68 31.42 43.68 41.24 43.68 49.22 35.76 49.22 26.03 49.22 16.3 41.24 8.38 31.42 8.38ZM 31.42 16.58C 28.24 16.58 25.28 18.15 23.5 20.77 23.09 21.38 22.42 21.7 21.74 21.7 21.34 21.7 20.93 21.59 20.57 21.35 19.6 20.7 19.34 19.4 19.99 18.44 22.55 14.65 26.82 12.38 31.42 12.38 32.59 12.38 33.54 13.32 33.54 14.48 33.54 15.64 32.59 16.58 31.42 16.58ZM 20.25 22.5C 21.4 22.72 22.15 23.82 21.93 24.96 21.88 25.23 21.88 25.23 21.88 25.47 21.88 25.47 21.89 26.03 21.89 26.03 21.89 27.19 20.95 28.13 19.78 28.13 18.61 28.13 17.66 27.19 17.66 26.03 17.66 26.03 17.66 25.61 17.66 25.61 17.64 25.17 17.64 24.85 17.77 24.17 17.99 23.03 19.11 22.29 20.25 22.5ZM 108.09 125.16C 108.09 125.18 108.09 125.19 108.09 125.21 108.09 125.16 108.09 125.13 108.09 125.16Z" fill="rgb(5,159,235)"/></svg>