<?xml version="1.0" encoding="utf-8"?>
<svg xmlns="http://www.w3.org/2000/svg"
	xmlns:xlink="http://www.w3.org/1999/xlink"
	width="36px" height="58px" viewBox="0 0 36 58">
<path fillRule="evenodd" d="M 32.34 5.56C 29.17 1.87 24.35-0 18-0 11.65-0 6.83 1.87 3.66 5.56 0.48 9.28-0 13.63-0 15.89-0 15.89-0 42.11-0 42.11-0 44.37 0.48 48.72 3.66 52.43 6.83 56.13 11.65 58 18 58 24.35 58 29.17 56.13 32.34 52.43 35.52 48.72 36 44.37 36 42.11 36 42.11 36 15.89 36 15.89 36 13.63 35.52 9.28 32.34 5.56ZM 18 20.21C 16.68 20.21 15.61 19.14 15.61 17.84 15.61 17.84 15.61 12.76 15.61 12.76 15.61 11.45 16.68 10.39 18 10.39 19.31 10.39 20.38 11.45 20.38 12.76 20.38 12.76 20.38 17.84 20.38 17.84 20.38 19.14 19.31 20.21 18 20.21ZM 34.12 42.11C 34.12 44.45 33.34 56.13 18 56.13 2.66 56.13 1.88 44.45 1.88 42.11 1.88 42.11 1.88 15.89 1.88 15.89 1.88 13.6 2.63 2.36 17.06 1.89 17.06 1.89 17.06 8.62 17.06 8.62 15.16 9.05 13.73 10.74 13.73 12.76 13.73 12.76 13.73 17.84 13.73 17.84 13.73 19.85 15.16 21.54 17.06 21.97 17.06 21.97 17.06 29.66 17.06 29.66 17.06 30.17 17.48 30.59 18 30.59 18.52 30.59 18.94 30.17 18.94 29.66 18.94 29.66 18.94 21.97 18.94 21.97 20.84 21.54 22.27 19.85 22.27 17.84 22.27 17.84 22.27 12.76 22.27 12.76 22.27 10.74 20.84 9.05 18.94 8.62 18.94 8.62 18.94 1.89 18.94 1.89 33.37 2.36 34.12 13.6 34.12 15.89 34.12 15.89 34.12 42.11 34.12 42.11Z" fill="rgb(255,255,255)"/></svg>