<?xml version="1.0" encoding="utf-8"?>
<svg xmlns="http://www.w3.org/2000/svg"
	xmlns:xlink="http://www.w3.org/1999/xlink"
	width="12px" height="16px" viewBox="0 0 12 16">
<path fillRule="evenodd" d="M 12 13.9C 12 13.65 12 13.87 12 13.9ZM 6 16C 0.88 16 0 14.19 0 14.19 0 13.98 0 13.86 0 13.8 0 13.83 0 13.82 0.01 13.52 0.08 9.85 0.59 8.8 4.26 8.13 4.26 8.13 4.78 8.8 6 8.8 7.22 8.8 7.74 8.13 7.74 8.13 11.45 8.8 11.93 9.88 11.99 13.64 12 13.88 12 13.92 12 13.9 12 13.97 12 14.06 12 14.19 12 14.19 11.12 16 6 16ZM 6 7.83C 4.25 7.83 2.82 6.07 2.82 3.91 2.82 1.75 3.29-0 6-0 8.71-0 9.18 1.75 9.18 3.91 9.18 6.07 7.75 7.83 6 7.83Z" fill="rgb(123,123,123)"/></svg>